# xmcd
#
# Track frame offsets:
#	150
#	8695
#	27356
#	34797
#	54757
#	67634
#	86646
#	96925
#	110307
#	120164
#	137600
#	158305
#
# Disc length: 2252 seconds
#
# Revision: 1
# Processed by: cddbd v1.5.2PL0 Copyright (c) Steve Scherf et al.
# Submitted via: audiograbber 1.83.01
#
DISCID=7a08ca0c
DTITLE=The Deer Creek Boys - Out Of The Ordinary
DYEAR=1900
DGENRE=Bluegrass
TTITLE0=Sweet Blue Eyed Darlin
TTITLE1=Were You There?
TTITLE2=Daybreak In Dixie
TTITLE3=Erase The Miles
TTITLE4=Do You Want To Live In Glory
TTITLE5=Blue Virginia Blue
TTITLE6=Clinch Mountain Backstep
TTITLE7=New Highway To Heaven
TTITLE8=Shady Grove
TTITLE9=Man Of Constant Sorrow
TTITLE10=My Lord Is Always There
TTITLE11=Bluegrass Special
EXTD=
EXTT0=
EXTT1=
EXTT2=
EXTT3=
EXTT4=
EXTT5=
EXTT6=
EXTT7=
EXTT8=
EXTT9=
EXTT10=
EXTT11=
PLAYORDER=
